<?xml version="1.0" encoding="utf-8"?>
<!-- Generator: Adobe Illustrator 24.3.0, SVG Export Plug-In . SVG Version: 6.00 Build 0)  -->
<svg version="1.1" id="Layer_1" xmlns="http://www.w3.org/2000/svg" xmlns:xlink="http://www.w3.org/1999/xlink" x="0px" y="0px"
	 viewBox="0 0 425 520.7" style="enable-background:new 0 0 425 520.7;" xml:space="preserve">
<style type="text/css">
	.st0{font-family:'Roboto-Regular';}
	.st1{font-size:13px;}
	.st2{fill:none;stroke:#000000;stroke-width:0.5;stroke-miterlimit:10;}
	.st3{enable-background:new    ;}
	.st4{font-family:'Roboto-LightItalic';}
	.st5{font-size:14px;}
</style>
<g id="godzilladibu02.psd_2_">
	
		<image style="overflow:visible;enable-background:new    ;" width="850" height="978" id="godzilladibu02_2_" xlink:href="DF9007709BA15FE0.png"  transform="matrix(0.5026 1.632355e-02 -1.632355e-02 0.5026 4.2127 9.9777)">
	</image>
</g>
<g>
	<g>
		<g>
			
				<image style="overflow:visible;enable-background:new    ;" width="600" height="558" xlink:href="DF9007709BA15FE1.png"  transform="matrix(0.2386 0 0 0.2386 313.7146 79.7798)">
			</image>
		</g>
	</g>
</g>
<g>
	<g>
		
			<image style="overflow:visible;enable-background:new    ;" width="413" height="592" xlink:href="DF9007709BA15FE7.png"  transform="matrix(0.2372 0 0 0.2372 88.1357 146.1997)">
		</image>
	</g>
	<g>
		
			<image style="overflow:visible;enable-background:new    ;" width="517" height="550" xlink:href="DF9007709BA15FE2.png"  transform="matrix(0.2382 0 0 0.2382 97.3869 78.9121)">
		</image>
	</g>
	<g>
		
			<image style="overflow:visible;enable-background:new    ;" width="500" height="504" xlink:href="DF9007709BA15FE3.png"  transform="matrix(0.239 0 0 0.239 146.3612 37.8587)">
		</image>
	</g>
	<g>
		
			<image style="overflow:visible;enable-background:new    ;" width="429" height="421" xlink:href="DF9007709BA15FEE.png"  transform="matrix(0.238 0 0 0.238 196.9481 23.9957)">
		</image>
	</g>
</g>
<g>
	<text transform="matrix(1 0 0 1 195.4235 19.907)" class="st0 st1">Pequeño cerebro</text>
</g>
<line class="st2" x1="390" y1="96.7" x2="390" y2="118.7"/>
<g>
	<text transform="matrix(1 0 0 1 374.348 73.6891)" class="st0 st1">Aliento</text>
	<text transform="matrix(1 0 0 1 374.348 91.6891)" class="st0 st1">atómico</text>
</g>
<line class="st2" x1="295.4" y1="188.8" x2="362.2" y2="188.8"/>
<text transform="matrix(1 0 0 1 366.6482 194.3357)" class="st0 st1">Corazón</text>
<g>
	<text transform="matrix(1 0 0 1 340.8109 268.7369)" class="st0 st1">Pulmones</text>
</g>
<g>
	<text transform="matrix(1 0 0 1 340.8109 286.2415)" class="st3"><tspan x="0" y="0" class="st4 st1">Puede respirar</tspan><tspan x="0" y="15.6" class="st4 st1">bajo el agua</tspan></text>
</g>
<path class="st2" d="M295.2,218.3c0,0,11.7,37.4,42.6,44.7"/>
<path class="st2" d="M88.1,163.9c0,0,9.1,40.6,48.9,40.6"/>
<g>
	<text transform="matrix(1 0 0 1 3.3593 121.0604)" class="st3"><tspan x="0" y="0" class="st0 st1">Descarga eléctrica</tspan><tspan x="0" y="15.6" class="st0 st1">a través de las </tspan><tspan x="0" y="31.2" class="st0 st1">placas dorsales</tspan></text>
</g>
<g>
	<text transform="matrix(1 0 0 1 1.8048 419.7262)" class="st3"><tspan x="0" y="0" class="st4 st1">La textura de la</tspan><tspan x="0" y="15.6" class="st4 st1">piel se inspiró en</tspan><tspan x="0" y="31.2" class="st4 st1">las cicatrices</tspan><tspan x="0" y="46.8" class="st4 st1">queloides vistas</tspan><tspan x="0" y="62.4" class="st4 st1">en los sobrevivientes</tspan><tspan x="0" y="78" class="st4 st1">de Hiroshima.</tspan></text>
</g>
<text transform="matrix(1 0 0 1 1.8048 372.8347)" class="st3"><tspan x="0" y="0" class="st0 st1">Escamas de</tspan><tspan x="0" y="15.6" class="st0 st1">carbono que</tspan><tspan x="0" y="31.2" class="st0 st1">cubren el cuerpo</tspan></text>
<path class="st2" d="M90.1,300.8c0,0-48.2,11-49,57.3"/>
<text transform="matrix(1 0 0 1 362.4306 391.0598)" class="st0 st1">Huesos</text>
<g>
	<text transform="matrix(1 0 0 1 362.4308 364.6256)" class="st0 st1">Músculos</text>
</g>
<path class="st2" d="M279.3,281.7c0,0,57.7,115.4-0.8,194.3"/>
<g>
	<text transform="matrix(1 0 0 1 227.3459 482.8163)" class="st0 st5">Horno</text>
	<text transform="matrix(1 0 0 1 227.3459 500.8163)" class="st0 st5">atómico</text>
</g>
<text transform="matrix(1 0 0 1 76.2427 74.9781)" class="st0 st1">Bolsas de uranio</text>
<path class="st2" d="M300.2,15.7c0,0,15.4-1.7,26.2,14.9"/>
<path class="st2" d="M208.9,41.7c31.4,5.9,60.1,31.3,76.9,70.9"/>
<g>
	<text transform="matrix(1 0 0 1 104.5861 44.6741)" class="st0 st1">Inductor de calor</text>
</g>
<line class="st2" x1="284.3" y1="172.1" x2="327.2" y2="172.1"/>
<g>
	<text transform="matrix(1 0 0 1 331.8418 175.9963)" class="st0 st1">Esternón</text>
</g>
<path class="st2" d="M289.9,150c0,0-40.7-74.8-105.7-78.9"/>
<path class="st2" d="M322.4,328.9c0,0,30.1-1.6,42.3,22"/>
<line class="st2" x1="323.2" y1="386.4" x2="358.1" y2="386.4"/>
</svg>
