<?xml version="1.0" encoding="utf-8"?>
<!-- Generator: Adobe Illustrator 24.3.0, SVG Export Plug-In . SVG Version: 6.00 Build 0)  -->
<svg version="1.1" id="Layer_1" xmlns="http://www.w3.org/2000/svg" xmlns:xlink="http://www.w3.org/1999/xlink" x="0px" y="0px"
	 viewBox="0 0 900 1011" style="enable-background:new 0 0 900 1011;" xml:space="preserve">
<style type="text/css">
	.st0{font-family:'Roboto-Regular';}
	.st1{font-size:15px;}
	.st2{fill:none;stroke:#000000;stroke-width:0.5;stroke-miterlimit:10;}
	.st3{font-family:'Roboto-LightItalic';}
	.st4{enable-background:new    ;}
</style>
<g id="godzilladibu02.psd_2_">
	
		<image style="overflow:visible;enable-background:new    ;" width="1500" height="1725" id="godzilladibu02_2_" xlink:href="BE620035A3644042.png"  transform="matrix(0.5771 1.873066e-02 -1.873066e-02 0.5771 1.0323 -22.4627)">
	</image>
</g>
<g>
	<g>
		<g>
			
				<image style="overflow:visible;enable-background:new    ;" width="1083" height="971" xlink:href="BE620035A3644046.png"  transform="matrix(0.2386 0 0 0.2386 665.0392 156.3764)">
			</image>
		</g>
	</g>
</g>
<g>
	<g>
		
			<image style="overflow:visible;enable-background:new    ;" width="517" height="883" xlink:href="BE620035A3644041.png"  transform="matrix(0.2389 0 0 0.2389 208.6944 290.2368)">
		</image>
	</g>
	<g>
		
			<image style="overflow:visible;enable-background:new    ;" width="733" height="800" xlink:href="BE620035A3644043.png"  transform="matrix(0.2389 0 0 0.2389 227.0456 154.218)">
		</image>
	</g>
	<g>
		
			<image style="overflow:visible;enable-background:new    ;" width="704" height="713" xlink:href="BE620035A3644040.png"  transform="matrix(0.2385 0 0 0.2385 326.1791 71.1615)">
		</image>
	</g>
	<g>
		
			<image style="overflow:visible;enable-background:new    ;" width="554" height="546" xlink:href="BE620035A364404E.png"  transform="matrix(0.2378 0 0 0.2378 429.2073 42.5341)">
		</image>
	</g>
</g>
<g>
	<text transform="matrix(1 0 0 1 742.5568 24.8389)" class="st0 st1">Pequeño cerebro</text>
</g>
<line class="st2" x1="773.5" y1="175.5" x2="773.5" y2="197.5"/>
<g>
	<text transform="matrix(1 0 0 1 769.2567 171.9291)" class="st0 st1">Aliento atómico</text>
</g>
<line class="st2" x1="595.2" y1="334.2" x2="696" y2="334.2"/>
<text transform="matrix(1 0 0 1 698.9553 340.5432)" class="st0 st1">Corazón</text>
<g>
	<text transform="matrix(1 0 0 1 699.9473 506.8144)" class="st0 st1">Pulmones</text>
</g>
<g>
	<text transform="matrix(1 0 0 1 699.9473 524.319)" class="st3 st1">Puede respirar bajo el agua</text>
</g>
<path class="st2" d="M598.6,403.2c0,0,19.8,88.2,98,98.9"/>
<path class="st2" d="M265.1,317.4c0,0,0.7,25.1,24.1,27.7"/>
<g>
	<text transform="matrix(1 0 0 1 145.1762 280.9545)" class="st4"><tspan x="0" y="0" class="st0 st1">Descarga eléctrica</tspan><tspan x="0" y="18" class="st0 st1">a través de las </tspan><tspan x="0" y="36" class="st0 st1">placas dorsales</tspan></text>
</g>
<g>
	<text transform="matrix(1 0 0 1 55.8111 637.6395)" class="st4"><tspan x="0" y="0" class="st3 st1">La textura de la piel</tspan><tspan x="0" y="18" class="st3 st1">se inspiró en las</tspan><tspan x="0" y="36" class="st3 st1">cicatrices queloides</tspan><tspan x="0" y="54" class="st3 st1">vistas en los </tspan><tspan x="0" y="72" class="st3 st1">sobreviviente</tspan><tspan x="85.1" y="72" class="st3 st1">s</tspan><tspan x="0" y="90" class="st3 st1">de Hiroshima.</tspan><tspan x="0" y="108" class="st3 st1"> </tspan></text>
</g>
<text transform="matrix(1 0 0 1 55.8112 581.6438)" class="st4"><tspan x="0" y="0" class="st0 st1">Escamas de</tspan><tspan x="0" y="18" class="st0 st1">carbono que </tspan><tspan x="0" y="36" class="st0 st1">cubren el cuerpo</tspan></text>
<path class="st2" d="M159,530.8c0,0-30,15.1-30.1,38"/>
<line class="st2" x1="715.6" y1="731.4" x2="651.3" y2="731.4"/>
<text transform="matrix(1 0 0 1 720.7534 736.5427)" class="st0 st1">Huesos</text>
<path class="st2" d="M721.5,654.8c0,0-26.8-35.7-73.1-27.3"/>
<g>
	<text transform="matrix(1 0 0 1 720.7541 671.8087)" class="st0 st1">Músculos</text>
</g>
<path class="st2" d="M575.9,510c0,0,60.3,3,96.7,40.6"/>
<g>
	<text transform="matrix(1 0 0 1 670.2221 564.6594)" class="st0 st1">Horno atómico</text>
</g>
<text transform="matrix(1 0 0 1 631.2499 265.9012)" class="st0 st1">Bolsas de Uranio</text>
<path class="st2" d="M709.8,34.6c0,0,6.9-13.9,26.8-13.9"/>
<path class="st2" d="M480.2,79c41.2,11.1,76.8,58.6,93.7,98.3"/>
<g>
	<text transform="matrix(1 0 0 1 359.9048 81.9385)" class="st0 st1">Inductor de calor</text>
</g>
<line class="st2" x1="574.4" y1="306.2" x2="684.1" y2="306.2"/>
<g>
	<text transform="matrix(1 0 0 1 687.7261 310.1582)" class="st0 st1">Esternón</text>
</g>
<path class="st2" d="M594.7,288.2c0,0,35.7,5.9,49.5-16.8"/>
</svg>
